<?xml version="1.0" encoding="UTF-8" standalone="no"?>
<!-- Created with Inkscape (http://www.inkscape.org/) -->

<svg
   xmlns:dc="http://purl.org/dc/elements/1.1/"
   xmlns:cc="http://creativecommons.org/ns#"
   xmlns:rdf="http://www.w3.org/1999/02/22-rdf-syntax-ns#"
   xmlns:svg="http://www.w3.org/2000/svg"
   xmlns="http://www.w3.org/2000/svg"
   xmlns:sodipodi="http://sodipodi.sourceforge.net/DTD/sodipodi-0.dtd"
   xmlns:inkscape="http://www.inkscape.org/namespaces/inkscape"
   width="154.05014mm"
   height="133.41138mm"
   viewBox="0 0 154.05014 133.41138"
   version="1.1"
   id="svg1814"
   inkscape:version="0.92.3 (2405546, 2018-03-11)"
   sodipodi:docname="idea.svg">
  <defs
     id="defs1808" />
  <sodipodi:namedview
     id="base"
     pagecolor="#ffffff"
     bordercolor="#666666"
     borderopacity="1.0"
     inkscape:pageopacity="0.0"
     inkscape:pageshadow="2"
     inkscape:zoom="0.35"
     inkscape:cx="93.613046"
     inkscape:cy="139.17321"
     inkscape:document-units="mm"
     inkscape:current-layer="layer1"
     showgrid="false"
     inkscape:snap-global="true"
     showguides="true"
     inkscape:guide-bbox="true"
     inkscape:window-width="1366"
     inkscape:window-height="705"
     inkscape:window-x="-8"
     inkscape:window-y="-8"
     inkscape:window-maximized="1" />
  <metadata
     id="metadata1811">
    <rdf:RDF>
      <cc:Work
         rdf:about="">
        <dc:format>image/svg+xml</dc:format>
        <dc:type
           rdf:resource="http://purl.org/dc/dcmitype/StillImage" />
        <dc:title></dc:title>
      </cc:Work>
    </rdf:RDF>
  </metadata>
  <g
     inkscape:label="Camada 1"
     inkscape:groupmode="layer"
     id="layer1"
     transform="translate(-27.195641,-86.945408)">
    <path
       sodipodi:type="star"
       style="opacity:1;fill:#fc7f29;fill-opacity:1;fill-rule:nonzero;stroke:none;stroke-width:1.57227886;stroke-miterlimit:4;stroke-dasharray:none;stroke-opacity:1"
       id="path2413"
       sodipodi:sides="6"
       sodipodi:cx="104.22071"
       sodipodi:cy="153.65108"
       sodipodi:r1="77.02507"
       sodipodi:r2="66.705666"
       sodipodi:arg1="1.0471976"
       sodipodi:arg2="1.5707963"
       inkscape:flatsided="true"
       inkscape:rounded="0"
       inkscape:randomized="0"
       d="m 142.73324,220.35675 -77.025068,-1e-5 -38.512531,-66.70567 38.512538,-66.705662 77.025071,4e-6 38.51253,66.705668 z"
       inkscape:transform-center-x="4.9502437e-006"
       inkscape:transform-center-y="4.0174894e-006" />
    <path
       inkscape:connector-curvature="0"
       style="fill:#000000;fill-opacity:0.19607843;stroke:none;stroke-width:0.1181446px;stroke-linecap:butt;stroke-linejoin:miter;stroke-opacity:1"
       d="m 107.96257,108.74128 -7.6914,19.54024 11.49602,11.49579 -8.12705,8.00776 -15.983677,-15.93798 -5.438573,5.43857 14.349723,14.34973 -0.386509,14.94644 -18.568089,-18.65646 -19.540244,7.6914 38.470151,38.46991 -1.564031,3.46773 22.802369,22.80237 h 24.95205 l 34.09718,-59.05869 -37.82935,-37.82935 -9.79931,6.51203 z"
       id="path2435" />
    <path
       style="opacity:1;fill:#f65818;fill-opacity:1;fill-rule:nonzero;stroke:none;stroke-width:1.37491;stroke-miterlimit:4;stroke-dasharray:none;stroke-opacity:1"
       d="m 104.11673,133.58222 c -11.423091,2e-5 -20.683329,9.26026 -20.683352,20.68335 0.0031,6.88509 3.431952,13.31728 9.146465,17.15769 v 4.95042 c 0,3.82514 3.079397,6.90468 6.904539,6.90468 h 9.264698 c 3.82514,0 6.90468,-3.07954 6.90468,-6.90468 v -4.96222 c 5.71105,-3.83807 9.13948,-10.26498 9.14646,-17.14589 -2e-5,-11.42314 -9.26034,-20.6834 -20.68349,-20.68335 z"
       id="path2359"
       inkscape:connector-curvature="0"
       sodipodi:nodetypes="cccssssccc" />
    <rect
       style="opacity:1;fill:#30077e;fill-opacity:1;fill-rule:nonzero;stroke:none;stroke-width:1.37490988;stroke-miterlimit:4;stroke-dasharray:none;stroke-opacity:1"
       id="rect2367"
       width="20.13744"
       height="6.6144872"
       x="94.04808"
       y="184.74388"
       ry="3.3072436" />
    <rect
       ry="3.3072436"
       y="191.94632"
       x="94.04808"
       height="6.6144872"
       width="20.13744"
       id="rect2369"
       style="opacity:1;fill:#30077e;fill-opacity:1;fill-rule:nonzero;stroke:none;stroke-width:1.37490988;stroke-miterlimit:4;stroke-dasharray:none;stroke-opacity:1" />
    <rect
       style="opacity:1;fill:#1a7fda;fill-opacity:1;fill-rule:nonzero;stroke:none;stroke-width:1.37490988;stroke-miterlimit:4;stroke-dasharray:none;stroke-opacity:1"
       id="rect2371"
       width="19.540089"
       height="7.6913114"
       x="58.072842"
       y="147.92548"
       ry="0" />
    <rect
       ry="0"
       y="147.92548"
       x="130.82849"
       height="7.6913114"
       width="19.540089"
       id="rect2373"
       style="opacity:1;fill:#1a7fda;fill-opacity:1;fill-rule:nonzero;stroke:none;stroke-width:1.37490988;stroke-miterlimit:4;stroke-dasharray:none;stroke-opacity:1" />
    <rect
       style="opacity:1;fill:#1a7fda;fill-opacity:1;fill-rule:nonzero;stroke:none;stroke-width:1.37490988;stroke-miterlimit:4;stroke-dasharray:none;stroke-opacity:1"
       id="rect2375"
       width="19.540089"
       height="7.6913114"
       x="108.74136"
       y="-107.96246"
       ry="0"
       transform="rotate(90)" />
    <rect
       style="opacity:1;fill:#1a7fda;fill-opacity:1;fill-rule:nonzero;stroke:none;stroke-width:1.37490988;stroke-miterlimit:4;stroke-dasharray:none;stroke-opacity:1"
       id="rect2377"
       width="19.540089"
       height="7.6913114"
       x="-8.556962"
       y="177.90285"
       ry="0"
       transform="rotate(-45)" />
    <rect
       transform="matrix(-0.70710678,-0.70710678,-0.70710678,0.70710678,0,0)"
       ry="0"
       y="31.247446"
       x="-155.21237"
       height="7.6913114"
       width="19.540089"
       id="rect2379"
       style="opacity:1;fill:#1a7fda;fill-opacity:1;fill-rule:nonzero;stroke:none;stroke-width:1.37490988;stroke-miterlimit:4;stroke-dasharray:none;stroke-opacity:1" />
    <g
       aria-label="!"
       style="font-style:normal;font-variant:normal;font-weight:normal;font-stretch:normal;font-size:146.63569641px;line-height:1.25;font-family:'Tw Cen MT Condensed';-inkscape-font-specification:'Tw Cen MT Condensed, Normal';font-variant-ligatures:normal;font-variant-caps:normal;font-variant-numeric:normal;font-feature-settings:normal;text-align:start;letter-spacing:0px;word-spacing:0px;writing-mode:lr-tb;text-anchor:start;fill:#ffffff;fill-opacity:1;stroke:none;stroke-width:1.52745509"
       id="text2383"
       transform="matrix(0.27498198,0,0,0.27498198,147.45835,109.90921)">
      <path
         inkscape:connector-curvature="0"
         d="m -162.98591,190.98654 -8.80674,-51.19362 q -0.21479,-1.28879 -0.21479,-2.57758 0,-11.02632 14.39149,-11.02632 14.39149,0 14.39149,10.95472 0,1.50359 -0.2148,2.64918 l -8.80673,51.19362 z m 5.36996,10.52512 q 12.6015,0 12.6015,12.6015 0,12.60151 -12.6015,12.60151 -12.60151,0 -12.60151,-12.60151 0,-12.6015 12.60151,-12.6015 z"
         style="font-style:normal;font-variant:normal;font-weight:normal;font-stretch:normal;font-family:'Britannic Bold';-inkscape-font-specification:'Britannic Bold, ';fill:#ffffff;stroke-width:1.52745509"
         id="path2385" />
    </g>
    <path
       inkscape:connector-curvature="0"
       style="opacity:1;fill:#ffffff;fill-opacity:0.19607843;fill-rule:nonzero;stroke:none;stroke-width:1.57227874;stroke-miterlimit:4;stroke-dasharray:none;stroke-opacity:1"
       d="M 65.708103,86.945445 27.618009,152.91952 v 1.46296 l 38.090094,65.9743 H 107.00218 V 86.945445 Z"
       id="path2440" />
  </g>
</svg>
