<?xml version="1.0" encoding="UTF-8" standalone="no"?>
<svg
   xmlns:dc="http://purl.org/dc/elements/1.1/"
   xmlns:cc="http://creativecommons.org/ns#"
   xmlns:rdf="http://www.w3.org/1999/02/22-rdf-syntax-ns#"
   xmlns:svg="http://www.w3.org/2000/svg"
   xmlns="http://www.w3.org/2000/svg"
   xmlns:sodipodi="http://sodipodi.sourceforge.net/DTD/sodipodi-0.dtd"
   xmlns:inkscape="http://www.inkscape.org/namespaces/inkscape"
   id="svg8"
   version="1.1"
   viewBox="0 0 186.16894 29.021108"
   height="29.021109mm"
   width="186.16895mm"
   sodipodi:docname="logo-nav.svg"
   inkscape:version="0.92.3 (2405546, 2018-03-11)">
  <sodipodi:namedview
     pagecolor="#ffffff"
     bordercolor="#666666"
     borderopacity="1"
     objecttolerance="10"
     gridtolerance="10"
     guidetolerance="10"
     inkscape:pageopacity="0"
     inkscape:pageshadow="2"
     inkscape:window-width="1366"
     inkscape:window-height="705"
     id="namedview1194"
     showgrid="false"
     inkscape:zoom="1.0793452"
     inkscape:cx="306.21179"
     inkscape:cy="-16.910971"
     inkscape:window-x="-8"
     inkscape:window-y="-8"
     inkscape:window-maximized="1"
     inkscape:current-layer="svg8" />
  <defs
     id="defs2" />
  <metadata
     id="metadata5">
    <rdf:RDF>
      <cc:Work
         rdf:about="">
        <dc:format>image/svg+xml</dc:format>
        <dc:type
           rdf:resource="http://purl.org/dc/dcmitype/StillImage" />
        <dc:title></dc:title>
      </cc:Work>
    </rdf:RDF>
  </metadata>
  <g
     style="fill:#ffffff;stroke:none"
     id="g976"
     transform="translate(-56.661568,-165.93678)">
    <path
       inkscape:connector-curvature="0"
       id="path826"
       d="m 69.31153,165.98381 c -0.18899,0 -2.348791,0.37684 -3.449402,0.80357 -1.111041,0.43077 -2.137474,1.07127 -3.118154,1.74821 -0.625629,0.43186 -1.195893,0.94216 -1.748214,1.46451 -0.501901,0.47467 -1.003281,0.9592 -1.417486,1.51205 -0.427551,0.57067 -0.748274,1.21438 -1.086237,1.84227 -0.373893,0.69463 -0.769342,1.3854 -1.03973,2.12648 -0.200311,0.54901 -0.312118,1.12732 -0.425297,1.70067 -0.147949,0.74949 -0.282149,1.50568 -0.330729,2.26808 -0.05709,0.89601 -0.04546,1.79986 0.04754,2.69286 0.08638,0.82947 0.234846,1.65727 0.472323,2.4567 0.23735,0.799 0.58692,1.5625 0.945163,2.3151 0.324128,0.68094 0.645763,1.37224 1.086236,1.98438 0.501217,0.69655 1.126607,1.2982 1.748216,1.8898 0.639768,0.60891 1.296424,1.2122 2.031916,1.70119 0.915043,0.60837 1.903288,1.11799 2.929022,1.51206 0.881665,0.33871 1.808657,0.56572 2.7404,0.72037 1.028057,0.17062 2.078705,0.27113 3.118155,0.22427 1.04799,-0.0472 2.101982,-0.16674 3.118672,-0.42529 0.946809,-0.2408 1.866448,-0.60261 2.740404,-1.03922 0.816898,-0.40811 1.585201,-0.91576 2.315104,-1.46451 0.740143,-0.55645 1.457931,-1.15544 2.078424,-1.84278 0.537226,-0.5951 0.986181,-1.26885 1.403532,-1.95337 0.312418,-0.51241 0.818555,-1.60352 0.818555,-1.60352 0,0 0.370962,-0.81817 0.534852,-1.2361 0.0733,-0.1869 0.166609,-0.37004 0.200504,-0.56792 0.03572,-0.20855 0.05859,-0.43127 0,-0.63459 -0.06374,-0.22118 -0.205835,-0.42155 -0.367937,-0.58498 -0.116385,-0.11734 -0.26624,-0.20068 -0.417544,-0.26717 -0.17929,-0.0788 -0.3721,-0.1482 -0.567926,-0.15037 -0.237482,-0.003 -0.403214,0.0378 -0.60978,0.15503 -0.181089,0.10274 -0.387694,0.26782 -0.519866,0.45837 -0.183653,0.26477 -0.29151,0.60618 -0.40721,0.90692 -0.177213,0.46064 -0.360082,0.92213 -0.600996,1.35289 -0.22089,0.39495 -0.502189,0.75339 -0.768429,1.11931 -0.305996,0.42056 -0.599612,0.85393 -0.952397,1.2361 -0.32621,0.35338 -0.698833,0.66213 -1.069186,0.96893 -0.440802,0.36516 -0.883092,0.73372 -1.369425,1.0356 -0.433716,0.26922 -0.904058,0.47604 -1.369942,0.68471 -0.481261,0.21555 -0.966435,0.42691 -1.469678,0.58446 -0.540073,0.16908 -1.093626,0.30657 -1.654162,0.38447 -0.806132,0.11203 -1.625221,0.14494 -2.438611,0.11679 -0.666777,-0.0231 -1.921174,-0.21687 -1.987992,-0.23357 -0.06682,-0.0167 -1.366091,-0.41958 -2.021065,-0.70177 -0.576373,-0.24832 -1.144878,-0.52527 -1.670182,-0.86868 -0.586663,-0.38352 -1.133925,-0.8319 -1.63711,-1.31982 -0.669017,-0.64872 -1.301924,-1.34743 -1.821079,-2.12132 -0.313526,-0.46737 -0.550757,-0.98427 -0.768427,-1.50326 -0.292838,-0.69822 -0.50374,-1.42881 -0.718304,-2.15491 -0.145047,-0.49086 -0.324781,-0.97832 -0.383955,-1.48673 -0.121687,-1.04555 -0.102338,-2.11796 0.06666,-3.15691 0.138552,-0.85177 0.444783,-1.67223 0.768427,-2.4722 0.240945,-0.59558 0.539721,-1.16898 0.868683,-1.72083 0.444478,-0.74564 0.907989,-1.49085 1.48673,-2.13786 0.315693,-0.35292 0.693206,-0.64799 1.069184,-0.93586 0.637628,-0.48817 1.294773,-0.96068 2.004529,-1.33635 0.53644,-0.28394 1.123426,-0.45997 1.687237,-0.68471 0.127746,-0.0509 0.383955,-0.15038 0.383955,-0.15038 0,0 0.419076,1.04983 0.701765,1.53686 0.392526,0.67625 1.369425,1.90427 1.369425,1.90427 0,0 -0.958051,0.23107 -1.41955,0.40102 -0.563465,0.20748 -1.12404,0.43944 -1.637109,0.75137 -0.410195,0.24939 -0.795343,0.54734 -1.135849,0.88573 -0.286821,0.28504 -0.518324,0.62179 -0.751893,0.95188 -0.216826,0.30643 -0.416292,0.62589 -0.601511,0.9524 -0.243279,0.42885 -0.489768,0.85966 -0.668176,1.3193 -0.127588,0.3287 -0.217104,0.67281 -0.283705,1.01906 -0.04867,0.253 -0.06978,0.51117 -0.08372,0.76843 -0.01958,0.3614 -0.0032,0.7238 0,1.08572 0.0028,0.31742 0.02762,0.69598 0.06408,1.01131 0.05757,0.49797 0.193459,0.94788 0.352952,1.39939 0.157639,0.44627 0.349007,0.8647 0.585494,1.26453 0.320326,0.54158 0.691139,1.05872 1.119312,1.5198 0.349321,0.37617 0.748667,0.7077 1.168918,1.00252 0.398037,0.27924 0.8254,0.5208 1.269691,0.71831 0.579228,0.2575 1.183439,0.47183 1.804024,0.60099 0.246274,0.0513 0.50074,0.053 0.751893,0.0672 0.695111,0.0392 1.397323,0.13989 2.087726,0.0501 0.534718,-0.0695 1.057159,-0.2414 1.553912,-0.45114 0.477826,-0.20175 0.909817,-0.49877 1.352888,-0.76842 0.357532,-0.2176 0.736428,-0.40994 1.052132,-0.68472 0.339402,-0.2954 0.607353,-0.66556 0.885735,-1.01906 0.279125,-0.35444 0.559231,-0.71216 0.784966,-1.10277 0.180766,-0.31281 0.319521,-0.64901 0.451135,-0.98547 0.123796,-0.31648 0.225883,-0.64163 0.317291,-0.96893 0.0861,-0.30831 0.180613,-0.61732 0.217043,-0.93535 0.05576,-0.48681 0.04194,-0.98148 0,-1.46968 -0.02516,-0.29277 -0.09289,-0.58051 -0.150378,-0.86868 -0.09382,-0.47027 -0.317294,-1.40353 -0.317294,-1.40353 0,0 1.179812,0.0628 1.770433,0.0672 0.490109,0.004 0.98057,-0.0116 1.470197,-0.0336 0.579805,-0.0261 1.164733,-0.0222 1.73736,-0.11679 0.254368,-0.042 0.521684,-0.0741 0.747241,-0.19895 0.282708,-0.15652 0.579697,-0.36509 0.708483,-0.66146 0.100428,-0.23111 0.04351,-0.50783 0,-0.75603 -0.135906,-0.77531 -0.437888,-1.52322 -0.80305,-2.22053 -0.681162,-1.30073 -1.535255,-2.531 -2.551266,-3.591 -1.048512,-1.09391 -2.309344,-1.84761 -3.641122,-2.57038 -1.392057,-0.75549 -2.909525,-1.42987 -4.488097,-1.55908 -1.499582,-0.12275 -4.060365,-0.12299 -4.249354,-0.12299 z m 1.214398,2.72696 c 0,0 1.081352,0.0354 1.620054,0.0832 0.531085,0.0472 1.063694,0.0983 1.586984,0.20051 0.616397,0.12036 1.234903,0.25792 1.820561,0.48472 0.608462,0.23563 1.184201,0.5557 1.737362,0.90175 0.435229,0.27228 0.84006,0.59214 1.236099,0.91881 0.471263,0.38872 0.944933,0.78185 1.353407,1.2361 0.402112,0.44718 0.740363,0.94928 1.068668,1.45314 0.238287,0.36571 0.65164,1.13585 0.65164,1.13585 0,0 -1.21593,0.0208 -1.820561,-0.0331 -0.629139,-0.056 -1.262753,-0.13121 -1.871205,-0.30076 -0.543832,-0.15154 -1.054785,-0.40361 -1.569929,-0.63458 -0.470349,-0.21089 -0.94086,-0.42614 -1.386477,-0.68523 -0.412544,-0.23986 -0.809151,-0.50872 -1.185976,-0.8015 -0.370615,-0.28797 -0.720458,-0.60379 -1.052648,-0.93535 -0.34332,-0.34267 -0.662207,-0.71046 -0.968933,-1.08624 -0.241535,-0.29591 -0.481214,-0.59504 -0.684713,-0.91829 -0.204343,-0.32459 -0.534333,-1.01906 -0.534333,-1.01906 z m 0.687294,6.60477 a 5.1144905,5.1144905 0 0 1 5.114417,5.11441 5.1144905,5.1144905 0 0 1 -5.114417,5.11442 5.1144905,5.1144905 0 0 1 -5.114414,-5.11442 5.1144905,5.1144905 0 0 1 5.114414,-5.11441 z"
       style="opacity:1;fill:#ffffff;fill-opacity:1;stroke:none;stroke-width:0.26458332px;stroke-linecap:butt;stroke-linejoin:miter;stroke-opacity:1" />
    <path
       inkscape:connector-curvature="0"
       id="path836"
       d="m 96.319185,170.91581 a 9.5235042,9.5235042 0 0 0 -9.523449,9.52345 9.5235042,9.5235042 0 0 0 9.523449,9.52345 9.5235042,9.5235042 0 0 0 9.523445,-9.52345 9.5235042,9.5235042 0 0 0 -9.523445,-9.52345 z m 0.02376,2.59829 a 6.8068004,6.8068004 0 0 1 6.806815,6.80682 6.8068004,6.8068004 0 0 1 -6.806815,6.80682 6.8068004,6.8068004 0 0 1 -6.806819,-6.80682 6.8068004,6.8068004 0 0 1 6.806819,-6.80682 z"
       style="opacity:1;fill:#ffffff;fill-opacity:1;fill-rule:nonzero;stroke:none;stroke-width:1.15251362;stroke-miterlimit:4;stroke-dasharray:none;stroke-opacity:1" />
    <path
       inkscape:connector-curvature="0"
       id="path841"
       d="m 107.70962,178.26552 c 0.13363,-0.53454 0.0318,-10.89178 0.0318,-10.89178 0,0 0.0276,-0.42193 0.19448,-0.6574 0.1352,-0.19082 0.29109,-0.38356 0.49609,-0.4961 0.12728,-0.0699 0.28061,-0.0814 0.42522,-0.0945 0.20406,-0.0184 0.41484,-0.0236 0.61422,0.0236 0.18517,0.0438 0.36838,0.12086 0.51971,0.23623 0.14673,0.11186 0.30404,0.24771 0.35435,0.42522 0.0687,0.24231 0.0709,0.5214 0.0709,0.5214 l 0.0236,12.28255 0.23624,3.49628 c 0,0 0.19482,1.25349 0.35435,1.86626 0.13175,0.50606 0.31106,0.99918 0.49609,1.48828 0.22098,0.58412 0.42605,1.18025 0.73233,1.72451 0.27115,0.48185 0.61049,0.92526 0.96857,1.34654 0.25243,0.29698 0.50626,0.60511 0.82682,0.82683 0.29854,0.20649 0.67898,0.26535 0.99219,0.44884 0.16035,0.0939 0.33443,0.18428 0.44884,0.33073 0.23968,0.40254 0.27331,0.91059 0.14177,1.29929 -0.45099,0.90584 -0.94391,0.96189 -1.65364,0.87407 -0.25338,-0.0399 -0.52141,-0.0903 -0.73233,-0.23623 -2.23187,-1.54444 -3.23903,-3.14135 -4.03962,-4.98456 -0.88036,-2.02687 -1.23164,-4.21867 -1.41741,-6.30748 -0.0993,-1.17033 -0.0845,-3.52258 -0.0845,-3.52258 z"
       style="opacity:1;fill:#ffffff;fill-opacity:1;stroke:none;stroke-width:0.26458332px;stroke-linecap:butt;stroke-linejoin:miter;stroke-opacity:1" />
    <path
       inkscape:connector-curvature="0"
       id="rect843"
       d="m 128.07228,169.71278 c -0.73108,0 -1.31981,0.58873 -1.31981,1.31982 v 1.38131 c -1.02598,-1.15403 -2.86332,-1.59836 -4.86069,-1.59836 -4.95412,0 -8.97051,4.33017 -8.97051,9.67177 0,5.3416 4.01638,9.67176 8.97051,9.67176 2.06272,0 3.88247,-0.52257 4.86069,-1.77819 v 0.29146 c 0,0.73108 0.58873,1.31981 1.31981,1.31981 h 0.13333 c 0.73108,0 1.31982,-0.58873 1.31982,-1.31981 V 171.0326 c 0,-0.73109 -0.58874,-1.31982 -1.31982,-1.31982 z m -5.67045,3.86178 c 1.11401,-0.034 2.05991,0.54847 2.86701,1.3286 1.31557,1.27161 1.51722,3.64903 1.51722,5.68441 0,1.9728 -0.25855,4.02897 -1.46348,5.40277 -0.83521,0.95225 -2.93427,1.1901 -4.09226,1.02474 -3.05038,-0.43561 -5.60275,-3.06018 -5.60275,-6.42751 0,-3.36732 2.56992,-6.58462 6.54895,-6.99802 0.0758,-0.008 0.15104,-0.0127 0.22531,-0.015 z"
       style="opacity:1;fill:#ffffff;fill-opacity:1;fill-rule:nonzero;stroke:none;stroke-width:1.39834929;stroke-miterlimit:4;stroke-dasharray:none;stroke-opacity:1" />
    <path
       inkscape:connector-curvature="0"
       id="rect853"
       d="m 132.88233,166.12592 c -0.66757,0 -1.2051,0.53701 -1.2051,1.20458 v 21.49739 c 0,0.66757 0.53753,1.2051 1.2051,1.2051 h 0.28318 c 0.66757,0 1.2051,-0.53753 1.2051,-1.2051 v -0.13849 c 0.9152,0.96718 2.45318,1.37511 4.18114,1.37511 4.46074,0 8.30145,-3.88708 8.30145,-8.6967 0,-4.80962 -3.84072,-8.72033 -8.30145,-8.72033 -1.67806,0 -3.23037,0.34849 -4.18114,1.2392 v -6.55618 c 0,-0.66757 -0.53753,-1.20458 -1.2051,-1.20458 z m 5.16277,9.41906 c 0.0669,0.002 0.24109,-0.0408 0.30939,-0.0338 3.58274,0.37223 5.57047,2.86989 5.57047,5.90185 0,3.03197 -2.18164,4.92729 -4.7779,5.82065 -1.04265,0.14889 -2.79886,-0.0483 -3.55089,-0.90572 -0.57188,-0.65203 -0.42447,-1.02483 -1.04181,-2.20232 -0.0327,-1.2276 0,-5.31197 0,-5.31197 0.19082,-0.93391 0.45014,-1.78229 1.05697,-2.36885 0.72671,-0.70243 1.43071,-0.93043 2.43377,-0.89983 z"
       style="opacity:1;fill:#ffffff;fill-opacity:1;fill-rule:nonzero;stroke:none;stroke-width:1.31674767;stroke-miterlimit:4;stroke-dasharray:none;stroke-opacity:1" />
    <path
       inkscape:connector-curvature="0"
       style="opacity:1;fill:#ffffff;fill-opacity:1;fill-rule:nonzero;stroke:none;stroke-width:1.15251362;stroke-miterlimit:4;stroke-dasharray:none;stroke-opacity:1"
       d="m 158.30728,170.91581 a 9.5235042,9.5235042 0 0 0 -9.52345,9.52345 9.5235042,9.5235042 0 0 0 9.52345,9.52345 9.5235042,9.5235042 0 0 0 9.52345,-9.52345 9.5235042,9.5235042 0 0 0 -9.52345,-9.52345 z m 0.0238,2.59829 a 6.8068004,6.8068004 0 0 1 6.80682,6.80682 6.8068004,6.8068004 0 0 1 -6.80682,6.80682 6.8068004,6.8068004 0 0 1 -6.80682,-6.80682 6.8068004,6.8068004 0 0 1 6.80682,-6.80682 z"
       id="path858" />
    <path
       inkscape:connector-curvature="0"
       style="opacity:1;fill:#ffffff;fill-opacity:1;fill-rule:nonzero;stroke:none;stroke-width:1.39834929;stroke-miterlimit:4;stroke-dasharray:none;stroke-opacity:1"
       d="m 198.37586,169.71278 c -0.73108,0 -1.31982,0.58873 -1.31982,1.31982 v 1.38131 c -1.02598,-1.15403 -2.86331,-1.59836 -4.86068,-1.59836 -4.95412,0 -8.97052,4.33017 -8.97052,9.67177 0,5.3416 4.01639,9.67176 8.97052,9.67176 2.06271,0 3.88247,-0.52257 4.86068,-1.77819 v 0.29146 c 0,0.73108 0.58874,1.31981 1.31982,1.31981 h 0.13332 c 0.73109,0 1.31982,-0.58873 1.31982,-1.31981 V 171.0326 c 0,-0.73109 -0.58873,-1.31982 -1.31982,-1.31982 z m -5.67046,3.86178 c 1.11401,-0.034 2.05992,0.54847 2.86701,1.3286 1.31557,1.27161 1.51722,3.64903 1.51722,5.68441 0,1.9728 -0.25855,4.02897 -1.46347,5.40277 -0.83521,0.95225 -2.93428,1.1901 -4.09226,1.02474 -3.05039,-0.43561 -5.60276,-3.06018 -5.60276,-6.42751 0,-3.36732 2.56992,-6.58462 6.54895,-6.99802 0.0758,-0.008 0.15105,-0.0127 0.22531,-0.015 z"
       id="path860" />
    <path
       inkscape:connector-curvature="0"
       id="path862"
       d="m 241.37736,169.71278 c -0.73108,0 -1.31982,0.58873 -1.31982,1.31982 v 1.38131 c -1.02598,-1.15403 -2.86331,-1.59836 -4.86068,-1.59836 -4.95412,0 -8.97052,4.33017 -8.97052,9.67177 0,5.3416 4.01639,9.67176 8.97052,9.67176 2.06271,0 3.88247,-0.52257 4.86068,-1.77819 v 0.29146 c 0,0.73108 0.58874,1.31981 1.31982,1.31981 h 0.13332 c 0.73109,0 1.31982,-0.58873 1.31982,-1.31981 V 171.0326 c 0,-0.73109 -0.58873,-1.31982 -1.31982,-1.31982 z m -5.67046,3.86178 c 1.11401,-0.034 2.05992,0.54847 2.86701,1.3286 1.31557,1.27161 1.51722,3.64903 1.51722,5.68441 0,1.9728 -0.25855,4.02897 -1.46347,5.40277 -0.83521,0.95225 -2.93428,1.1901 -4.09226,1.02474 -3.05039,-0.43561 -5.60276,-3.06018 -5.60276,-6.42751 0,-3.36732 2.56992,-6.58462 6.54895,-6.99802 0.0758,-0.008 0.15105,-0.0127 0.22531,-0.015 z"
       style="opacity:1;fill:#ffffff;fill-opacity:1;fill-rule:nonzero;stroke:none;stroke-width:1.39834929;stroke-miterlimit:4;stroke-dasharray:none;stroke-opacity:1" />
    <rect
       ry="1.2265691"
       y="170.83928"
       x="169.4799"
       height="19.150303"
       width="2.5390604"
       id="rect864"
       style="opacity:1;fill:#ffffff;fill-opacity:1;fill-rule:nonzero;stroke:none;stroke-width:1.24424028;stroke-miterlimit:4;stroke-dasharray:none;stroke-opacity:1" />
    <path
       inkscape:connector-curvature="0"
       id="path866"
       d="m 174.75367,171.03931 c -3.11821,0 -5.27874,3.03549 -5.27874,6.77995 0,1.96345 0.66834,3.80481 1.75286,5.11287 l 0.42581,1.24695 c 0,0 0.36076,2.76523 0.34055,2.90525 l 0.36122,-0.0656 c 0.4133,0.69021 1.11377,0.93521 1.73736,1.30276 0.82025,0.48348 1.69379,0.89677 2.60604,1.16944 0.8752,0.26159 1.83645,0.38614 2.70578,0.43408 0.5878,0.0324 1.02124,-0.044 1.36994,-0.50074 0.36494,-0.58102 0.2993,-1.84058 -0.27182,-2.04019 -0.99478,-0.24682 -1.33213,-0.13295 -2.46754,-0.37568 -0.79288,-0.16951 -1.25998,-0.42111 -1.90428,-0.62426 -0.54291,-0.28964 -1.11686,-0.71835 -1.73736,-1.10277 -0.14226,-0.14494 -0.22245,-0.33719 -0.31626,-0.51987 0.30603,0.0676 0.62085,0.10491 0.94361,0.10491 3.11822,0 6.44767,-3.06856 6.44767,-6.81302 0,-3.74446 -3.59662,-7.01405 -6.71484,-7.01405 z m -2.75952,16.04502 -0.006,0.001 c 0.003,0.009 0.005,0.007 0.006,-0.001 z m 3.49333,-13.11548 c 1.7809,0 3.22461,1.82945 3.22461,4.08657 0,2.25712 -1.44371,4.08709 -3.22461,4.08709 -0.83991,0 -1.87253,-0.023 -2.44637,-0.68988 -0.6429,-0.74711 -0.77824,-2.20459 -0.77824,-3.39721 0,-1.23496 0.18139,-2.72586 0.86454,-3.47524 0.56543,-0.62026 1.55357,-0.61133 2.36007,-0.61133 z"
       style="opacity:1;fill:#ffffff;fill-opacity:1;fill-rule:nonzero;stroke:none;stroke-width:1.22100008;stroke-miterlimit:4;stroke-dasharray:none;stroke-opacity:1" />
    <path
       inkscape:connector-curvature="0"
       id="rect876"
       d="m 203.45941,165.93678 c -0.7273,0 -1.31309,0.58528 -1.31309,1.31258 v 14.33608 c 0,0.0402 0.002,0.0801 0.006,0.11937 l -0.0294,0.0517 c 0,0 0.0585,0.47858 0.0837,0.7183 0.0374,0.35597 0.0448,0.71558 0.10026,1.06919 0.0759,0.48449 0.18595,0.96411 0.31729,1.4366 0.1542,0.55475 0.35561,1.09545 0.55087,1.63711 0.15781,0.43775 0.29642,0.88494 0.50126,1.30276 0.31232,0.63707 0.68193,1.24986 1.10278,1.82108 0.23396,0.31755 0.51454,0.59808 0.78496,0.88522 0.32933,0.34968 0.64662,0.71571 1.01906,1.01906 0.37719,0.30722 0.79689,0.55976 1.21905,0.8015 0.4149,0.23758 0.83738,0.47039 1.28623,0.6351 0.23708,0.087 0.48498,0.15044 0.73535,0.18345 0.32023,0.0422 0.66118,0.1151 0.96893,0.0171 0.2239,-0.0713 0.40292,-0.25025 0.56793,-0.41755 0.10091,-0.10231 0.20388,-0.215 0.25063,-0.35088 0.0852,-0.24769 0.0663,-0.52565 0.0331,-0.78548 -0.0265,-0.20791 -0.0716,-0.42371 -0.18345,-0.601 -0.14507,-0.23 -0.36086,-0.42476 -0.60151,-0.55139 -0.32871,-0.17295 -1.0189,-0.23392 -1.08573,-0.25062 -0.0668,-0.0167 -1.19004,-0.58961 -1.68723,-1.01906 -0.58971,-0.50937 -1.07852,-1.14027 -1.48673,-1.80403 -0.31216,-0.50759 -0.51091,-1.07847 -0.7183,-1.63711 -0.27769,-0.74799 -0.54532,-1.50584 -0.70177,-2.28823 -0.17991,-0.89969 -0.20427,-1.82402 -0.26717,-2.73937 -0.0286,-0.41696 -0.039,-0.83535 -0.0501,-1.25315 -0.0101,-0.38148 -0.0168,-0.93715 -0.0222,-1.43092 v -4.5868 h 3.098 c 0.70471,0 1.27228,-0.56757 1.27228,-1.27228 v -0.1018 c 0,-0.70471 -0.56757,-1.27176 -1.27228,-1.27176 h -3.098 v -3.67212 c 0,-0.72731 -0.5858,-1.31258 -1.3131,-1.31258 z"
       style="opacity:1;fill:#ffffff;fill-opacity:1;fill-rule:nonzero;stroke:none;stroke-width:1.28724623;stroke-miterlimit:4;stroke-dasharray:none;stroke-opacity:1" />
    <path
       inkscape:connector-curvature="0"
       id="path884"
       d="m 210.60368,166.05512 a 1.2520461,1.3111049 0 0 0 -1.25212,1.31103 1.2520461,1.3111049 0 0 0 1.25212,1.31103 1.2520461,1.3111049 0 0 0 1.25212,-1.31103 1.2520461,1.3111049 0 0 0 -1.25212,-1.31103 z m 0.0382,9.37049 c -0.79586,0 -1.4366,0.69143 -1.4366,1.55029 v 8.82634 c 0,0.85886 0.64074,1.55029 1.4366,1.55029 0.79586,0 1.4366,-0.69143 1.4366,-1.55029 v -8.82634 c 0,-0.85886 -0.64074,-1.55029 -1.4366,-1.55029 z"
       style="opacity:1;fill:#ffffff;fill-opacity:1;fill-rule:nonzero;stroke:none;stroke-width:1.22100008;stroke-miterlimit:4;stroke-dasharray:none;stroke-opacity:1" />
    <path
       inkscape:connector-curvature="0"
       id="rect888"
       d="m 227.42953,167.96715 c -0.22595,-0.009 -0.45319,0.0142 -0.67645,0.0501 -0.18133,0.0292 -0.36705,0.058 -0.53433,0.13384 -0.23142,0.1049 -0.42124,0.28479 -0.62684,0.43408 -0.21222,0.1541 -0.44269,0.28922 -0.62632,0.47646 -0.26787,0.27313 -0.45415,0.61572 -0.67644,0.92707 -0.12431,0.17412 -0.25862,0.34186 -0.36742,0.52607 -0.40398,0.68397 -0.75044,1.403 -1.05213,2.13785 -0.17387,0.42351 -0.30688,0.86365 -0.4346,1.30328 -0.29613,1.01932 -0.51766,2.05883 -0.76843,3.09025 -0.13656,0.56168 -0.40101,1.68724 -0.40101,1.68724 l -0.43408,2.42207 c 0,0 -0.15263,1.1737 -0.26717,1.7539 -0.11717,0.59352 -0.3269,1.41523 -0.46405,1.94252 l -3.39721,-7.60833 c -0.41812,-0.93647 -1.33982,-1.4293 -2.06654,-1.10484 -0.72672,0.32447 -0.97519,1.33988 -0.55707,2.27635 l 4.29689,9.6237 c 0.0848,0.18988 0.19125,0.36029 0.31161,0.51056 0.0324,0.11669 0.10964,0.38563 0.20567,0.54054 0.14527,0.23435 0.33548,0.45322 0.56793,0.60151 0.23751,0.15152 0.52553,0.21311 0.80202,0.26717 0.3395,0.0664 0.57634,0.0585 1.1777,-0.20877 0.60135,-0.26727 0.67137,-0.32656 0.90589,-0.60358 0.14759,-0.17434 0.21544,-0.40636 0.2806,-0.62529 0.17282,-0.58071 0.20123,-1.19551 0.28371,-1.79575 0.20289,-1.47663 0.27393,-2.971 0.51986,-4.44107 0.2314,-1.38325 0.60457,-2.73885 0.89762,-4.11035 0.22524,-1.05418 0.35614,-2.13187 0.66146,-3.1657 0.27254,-0.92283 0.58971,-1.84206 1.03921,-2.69286 0.25917,-0.49055 0.48697,-1.05761 0.94516,-1.37046 0.22715,-0.15508 0.543,-0.099 0.80306,-0.18861 0.21319,-0.0734 0.45015,-0.12924 0.61443,-0.28371 0.1694,-0.15929 0.28177,-0.38711 0.33073,-0.61443 0.0715,-0.33182 0.0534,-0.69954 -0.0708,-1.01544 -0.0963,-0.24493 -0.29278,-0.44732 -0.49609,-0.61443 -0.11655,-0.0958 -0.25722,-0.16358 -0.4005,-0.21084 -0.10432,-0.0344 -0.2163,-0.0458 -0.32607,-0.0501 z"
       style="opacity:1;fill:#ffffff;fill-opacity:1;fill-rule:nonzero;stroke:none;stroke-width:1.61544061;stroke-miterlimit:4;stroke-dasharray:none;stroke-opacity:1" />
  </g>
</svg>
